<?xml version="1.0" encoding="UTF-8" standalone="no"?>
<!-- Created with Inkscape (http://www.inkscape.org/) -->

<svg
   xmlns:dc="http://purl.org/dc/elements/1.1/"
   xmlns:cc="http://creativecommons.org/ns#"
   xmlns:rdf="http://www.w3.org/1999/02/22-rdf-syntax-ns#"
   xmlns:svg="http://www.w3.org/2000/svg"
   xmlns="http://www.w3.org/2000/svg"
   xmlns:sodipodi="http://sodipodi.sourceforge.net/DTD/sodipodi-0.dtd"
   xmlns:inkscape="http://www.inkscape.org/namespaces/inkscape"
   width="353.95612"
   height="402.2316"
   id="svg2"
   version="1.1"
   inkscape:version="0.48.2 r9819"
   sodipodi:docname="PolygonsSetUnion.svg">
  <defs
     id="defs4">
    <marker
       inkscape:stockid="Arrow1Mend"
       orient="auto"
       refY="0"
       refX="0"
       id="Arrow1Mend"
       style="overflow:visible">
      <path
         id="path5390"
         d="M 0,0 5,-5 -12.5,0 5,5 0,0 z"
         style="fill-rule:evenodd;stroke:#000000;stroke-width:1pt;marker-start:none"
         transform="matrix(-0.4,0,0,-0.4,-4,0)"
         inkscape:connector-curvature="0" />
    </marker>
    <inkscape:perspective
       sodipodi:type="inkscape:persp3d"
       inkscape:vp_x="0 : 526.18109 : 1"
       inkscape:vp_y="0 : 1000 : 0"
       inkscape:vp_z="744.09448 : 526.18109 : 1"
       inkscape:persp3d-origin="372.04724 : 350.78739 : 1"
       id="perspective10" />
    <inkscape:perspective
       id="perspective2831"
       inkscape:persp3d-origin="0.5 : 0.33333333 : 1"
       inkscape:vp_z="1 : 0.5 : 1"
       inkscape:vp_y="0 : 1000 : 0"
       inkscape:vp_x="0 : 0.5 : 1"
       sodipodi:type="inkscape:persp3d" />
    <inkscape:perspective
       id="perspective2856"
       inkscape:persp3d-origin="0.5 : 0.33333333 : 1"
       inkscape:vp_z="1 : 0.5 : 1"
       inkscape:vp_y="0 : 1000 : 0"
       inkscape:vp_x="0 : 0.5 : 1"
       sodipodi:type="inkscape:persp3d" />
    <inkscape:perspective
       id="perspective2856-1"
       inkscape:persp3d-origin="0.5 : 0.33333333 : 1"
       inkscape:vp_z="1 : 0.5 : 1"
       inkscape:vp_y="0 : 1000 : 0"
       inkscape:vp_x="0 : 0.5 : 1"
       sodipodi:type="inkscape:persp3d" />
    <inkscape:perspective
       id="perspective4581"
       inkscape:persp3d-origin="0.5 : 0.33333333 : 1"
       inkscape:vp_z="1 : 0.5 : 1"
       inkscape:vp_y="0 : 1000 : 0"
       inkscape:vp_x="0 : 0.5 : 1"
       sodipodi:type="inkscape:persp3d" />
    <inkscape:perspective
       id="perspective5169"
       inkscape:persp3d-origin="0.5 : 0.33333333 : 1"
       inkscape:vp_z="1 : 0.5 : 1"
       inkscape:vp_y="0 : 1000 : 0"
       inkscape:vp_x="0 : 0.5 : 1"
       sodipodi:type="inkscape:persp3d" />
    <inkscape:perspective
       id="perspective5834"
       inkscape:persp3d-origin="0.5 : 0.33333333 : 1"
       inkscape:vp_z="1 : 0.5 : 1"
       inkscape:vp_y="0 : 1000 : 0"
       inkscape:vp_x="0 : 0.5 : 1"
       sodipodi:type="inkscape:persp3d" />
    <marker
       inkscape:stockid="Arrow1Mend"
       orient="auto"
       refY="0"
       refX="0"
       id="Arrow1Mend-9"
       style="overflow:visible">
      <path
         id="path5390-1"
         d="M 0,0 5,-5 -12.5,0 5,5 0,0 z"
         style="fill-rule:evenodd;stroke:#000000;stroke-width:1pt;marker-start:none"
         transform="matrix(-0.4,0,0,-0.4,-4,0)"
         inkscape:connector-curvature="0" />
    </marker>
    <inkscape:perspective
       id="perspective3660"
       inkscape:persp3d-origin="0.5 : 0.33333333 : 1"
       inkscape:vp_z="1 : 0.5 : 1"
       inkscape:vp_y="0 : 1000 : 0"
       inkscape:vp_x="0 : 0.5 : 1"
       sodipodi:type="inkscape:persp3d" />
    <inkscape:perspective
       id="perspective3697"
       inkscape:persp3d-origin="0.5 : 0.33333333 : 1"
       inkscape:vp_z="1 : 0.5 : 1"
       inkscape:vp_y="0 : 1000 : 0"
       inkscape:vp_x="0 : 0.5 : 1"
       sodipodi:type="inkscape:persp3d" />
    <inkscape:perspective
       id="perspective3750"
       inkscape:persp3d-origin="0.5 : 0.33333333 : 1"
       inkscape:vp_z="1 : 0.5 : 1"
       inkscape:vp_y="0 : 1000 : 0"
       inkscape:vp_x="0 : 0.5 : 1"
       sodipodi:type="inkscape:persp3d" />
    <inkscape:perspective
       id="perspective3750-4"
       inkscape:persp3d-origin="0.5 : 0.33333333 : 1"
       inkscape:vp_z="1 : 0.5 : 1"
       inkscape:vp_y="0 : 1000 : 0"
       inkscape:vp_x="0 : 0.5 : 1"
       sodipodi:type="inkscape:persp3d" />
    <inkscape:perspective
       id="perspective3786"
       inkscape:persp3d-origin="0.5 : 0.33333333 : 1"
       inkscape:vp_z="1 : 0.5 : 1"
       inkscape:vp_y="0 : 1000 : 0"
       inkscape:vp_x="0 : 0.5 : 1"
       sodipodi:type="inkscape:persp3d" />
    <inkscape:perspective
       id="perspective3659"
       inkscape:persp3d-origin="0.5 : 0.33333333 : 1"
       inkscape:vp_z="1 : 0.5 : 1"
       inkscape:vp_y="0 : 1000 : 0"
       inkscape:vp_x="0 : 0.5 : 1"
       sodipodi:type="inkscape:persp3d" />
    <inkscape:perspective
       id="perspective3702"
       inkscape:persp3d-origin="0.5 : 0.33333333 : 1"
       inkscape:vp_z="1 : 0.5 : 1"
       inkscape:vp_y="0 : 1000 : 0"
       inkscape:vp_x="0 : 0.5 : 1"
       sodipodi:type="inkscape:persp3d" />
    <inkscape:perspective
       id="perspective3730"
       inkscape:persp3d-origin="0.5 : 0.33333333 : 1"
       inkscape:vp_z="1 : 0.5 : 1"
       inkscape:vp_y="0 : 1000 : 0"
       inkscape:vp_x="0 : 0.5 : 1"
       sodipodi:type="inkscape:persp3d" />
    <inkscape:perspective
       id="perspective3730-6"
       inkscape:persp3d-origin="0.5 : 0.33333333 : 1"
       inkscape:vp_z="1 : 0.5 : 1"
       inkscape:vp_y="0 : 1000 : 0"
       inkscape:vp_x="0 : 0.5 : 1"
       sodipodi:type="inkscape:persp3d" />
    <inkscape:perspective
       id="perspective3766"
       inkscape:persp3d-origin="0.5 : 0.33333333 : 1"
       inkscape:vp_z="1 : 0.5 : 1"
       inkscape:vp_y="0 : 1000 : 0"
       inkscape:vp_x="0 : 0.5 : 1"
       sodipodi:type="inkscape:persp3d" />
    <inkscape:perspective
       id="perspective3766-1"
       inkscape:persp3d-origin="0.5 : 0.33333333 : 1"
       inkscape:vp_z="1 : 0.5 : 1"
       inkscape:vp_y="0 : 1000 : 0"
       inkscape:vp_x="0 : 0.5 : 1"
       sodipodi:type="inkscape:persp3d" />
    <inkscape:perspective
       id="perspective3766-4"
       inkscape:persp3d-origin="0.5 : 0.33333333 : 1"
       inkscape:vp_z="1 : 0.5 : 1"
       inkscape:vp_y="0 : 1000 : 0"
       inkscape:vp_x="0 : 0.5 : 1"
       sodipodi:type="inkscape:persp3d" />
    <inkscape:perspective
       id="perspective3813"
       inkscape:persp3d-origin="0.5 : 0.33333333 : 1"
       inkscape:vp_z="1 : 0.5 : 1"
       inkscape:vp_y="0 : 1000 : 0"
       inkscape:vp_x="0 : 0.5 : 1"
       sodipodi:type="inkscape:persp3d" />
    <inkscape:perspective
       id="perspective3669"
       inkscape:persp3d-origin="0.5 : 0.33333333 : 1"
       inkscape:vp_z="1 : 0.5 : 1"
       inkscape:vp_y="0 : 1000 : 0"
       inkscape:vp_x="0 : 0.5 : 1"
       sodipodi:type="inkscape:persp3d" />
    <inkscape:perspective
       id="perspective2881"
       inkscape:persp3d-origin="0.5 : 0.33333333 : 1"
       inkscape:vp_z="1 : 0.5 : 1"
       inkscape:vp_y="0 : 1000 : 0"
       inkscape:vp_x="0 : 0.5 : 1"
       sodipodi:type="inkscape:persp3d" />
    <inkscape:perspective
       id="perspective2917"
       inkscape:persp3d-origin="0.5 : 0.33333333 : 1"
       inkscape:vp_z="1 : 0.5 : 1"
       inkscape:vp_y="0 : 1000 : 0"
       inkscape:vp_x="0 : 0.5 : 1"
       sodipodi:type="inkscape:persp3d" />
  </defs>
  <sodipodi:namedview
     id="base"
     pagecolor="#ffffff"
     bordercolor="#666666"
     borderopacity="1.0"
     inkscape:pageopacity="0.0"
     inkscape:pageshadow="2"
     inkscape:zoom="0.9899495"
     inkscape:cx="60.335325"
     inkscape:cy="211.41847"
     inkscape:document-units="px"
     inkscape:current-layer="layer1"
     showgrid="false"
     inkscape:window-width="1366"
     inkscape:window-height="737"
     inkscape:window-x="0"
     inkscape:window-y="1"
     inkscape:window-maximized="1"
     fit-margin-top="10"
     fit-margin-left="10"
     fit-margin-right="10"
     fit-margin-bottom="10" />
  <metadata
     id="metadata7">
    <rdf:RDF>
      <cc:Work
         rdf:about="">
        <dc:format>image/svg+xml</dc:format>
        <dc:type
           rdf:resource="http://purl.org/dc/dcmitype/StillImage" />
        <dc:title />
      </cc:Work>
    </rdf:RDF>
  </metadata>
  <g
     inkscape:label="Layer 1"
     inkscape:groupmode="layer"
     id="layer1"
     transform="translate(-278.20101,-155.73916)">
    <path
       style="color:#000000;fill:#e6f0fa;fill-opacity:1;fill-rule:nonzero;stroke:#000000;stroke-width:3.75;stroke-linecap:round;stroke-linejoin:round;stroke-miterlimit:3.97188687;stroke-opacity:1;stroke-dasharray:none;stroke-dashoffset:0.6;marker:none;visibility:visible;display:inline;overflow:visible;enable-background:accumulate"
       d="m 502.08605,268.40705 c -7.31286,43.9707 -60.5127,71.13475 -118.82515,60.67255 -58.3125,-10.46221 -99.65584,-54.5888 -92.34298,-98.55952 7.31285,-43.97074 60.51268,-71.13475 118.82515,-60.67255 58.31248,10.46218 99.65583,54.58877 92.34298,98.55952 z"
       id="path5930-4"
       inkscape:connector-curvature="0" />
    <path
       style="color:#000000;fill:#e6f0fa;fill-opacity:1;fill-rule:nonzero;stroke:#000000;stroke-width:3.75;stroke-linecap:round;stroke-linejoin:round;stroke-miterlimit:4;stroke-opacity:1;stroke-dasharray:none;stroke-dashoffset:0.6;marker:none;visibility:visible;display:inline;overflow:visible;enable-background:accumulate"
       d="m 620.27515,446.97419 c -0.24673,55.07729 -53.64138,99.44795 -119.26028,99.10461 -65.6189,-0.34334 -118.61351,-45.27063 -118.36678,-100.34792 0.24672,-55.07732 53.64136,-99.44798 119.26025,-99.10465 65.61892,0.34333 118.61354,45.27064 118.36681,100.34796 z"
       id="path5930"
       inkscape:connector-curvature="0" />
    <path
       style="color:#000000;fill:#3cb371;fill-opacity:1;fill-rule:nonzero;stroke:#000000;stroke-width:3.75;stroke-linecap:round;stroke-linejoin:round;stroke-miterlimit:3.96428585;stroke-opacity:1;stroke-dasharray:none;stroke-dashoffset:0.6;marker:none;visibility:visible;display:inline;overflow:visible;enable-background:accumulate"
       d="m 499.64986,501.73767 c 0,0 -45.93748,10.14192 -45.93748,10.14192 0,0 14.18557,-44.85398 14.18557,-44.85398 0,0 31.75191,34.71206 31.75191,34.71206 z"
       id="path2816"
       sodipodi:nodetypes="cccc"
       inkscape:connector-curvature="0" />
    <rect
       style="color:#000000;fill:#9ade00;fill-opacity:1;fill-rule:nonzero;stroke:#000000;stroke-width:3.74999928;stroke-linecap:round;stroke-linejoin:round;stroke-miterlimit:3.96428585;stroke-opacity:1;stroke-dasharray:none;stroke-dashoffset:0.6;marker:none;visibility:visible;display:inline;overflow:visible;enable-background:accumulate"
       id="rect2883"
       width="36.627964"
       height="36.627964"
       x="577.83606"
       y="260.51364"
       transform="matrix(0.9797252,0.20034604,-0.20034604,0.9797252,0,0)" />
    <path
       style="color:#000000;fill:#fd7118;fill-opacity:1;fill-rule:nonzero;stroke:#000000;stroke-width:3.75;stroke-linecap:round;stroke-linejoin:round;stroke-miterlimit:3.96428585;stroke-opacity:1;stroke-dasharray:none;stroke-dashoffset:0.6;marker:none;visibility:visible;display:inline;overflow:visible;enable-background:accumulate"
       d="m 352.16913,266.63461 c 0,0 -28.73539,-9.41453 -28.73539,-9.41453 0,0 0.074,-30.23825 0.074,-30.23825 0,0 28.78117,-9.27374 28.78117,-9.27374 0,0 17.71369,24.50679 17.71369,24.50679 0,0 -17.8335,24.41973 -17.8335,24.41973 z"
       id="path3659"
       sodipodi:nodetypes="cccccc"
       inkscape:connector-curvature="0" />
    <path
       sodipodi:type="star"
       style="color:#000000;fill:#ff2a2a;fill-opacity:1;fill-rule:nonzero;stroke:#000000;stroke-width:5.72666168;stroke-linecap:round;stroke-linejoin:round;stroke-miterlimit:3.96428585;stroke-opacity:1;stroke-dasharray:none;stroke-dashoffset:0;marker:none;visibility:visible;display:inline;overflow:visible;enable-background:accumulate"
       id="path3650"
       sodipodi:sides="5"
       sodipodi:cx="-324.28571"
       sodipodi:cy="392.85715"
       sodipodi:r1="52.000786"
       sodipodi:r2="24.323479"
       sodipodi:arg1="1.2055949"
       sodipodi:arg2="1.8339134"
       inkscape:flatsided="false"
       inkscape:rounded="0"
       inkscape:randomized="0"
       d="m -305.71428,441.42858 -24.89776,-25.08507 -34.12895,9.18551 16.16348,-31.43089 -19.28237,-29.62008 34.88735,5.65971 22.21179,-27.49174 5.39808,34.92879 33.01002,12.62926 -31.55115,15.92746 z"
       transform="matrix(0.648273,0.0924489,-0.0924489,0.648273,799.88639,248.32082)" />
    <rect
       style="color:#000000;fill:#fdf198;fill-opacity:1;fill-rule:nonzero;stroke:#000000;stroke-width:3.74999881;stroke-linecap:round;stroke-linejoin:round;stroke-miterlimit:3.96938777;stroke-opacity:1;stroke-dasharray:none;stroke-dashoffset:0;marker:none;visibility:visible;display:inline;overflow:visible;enable-background:accumulate"
       id="rect3649"
       width="77.857117"
       height="29.285707"
       x="140.7955"
       y="574.54016"
       transform="matrix(0.87224627,-0.48906691,0.48906691,0.87224627,0,0)" />
    <path
       style="color:#000000;fill:#4682b4;fill-opacity:1;fill-rule:nonzero;stroke:#000000;stroke-width:3.75;stroke-linecap:round;stroke-linejoin:round;stroke-miterlimit:4;stroke-opacity:1;stroke-dasharray:none;stroke-dashoffset:0;marker:none;visibility:visible;display:inline;overflow:visible;enable-background:accumulate"
       d="m 397.595,189.62989 33.27097,19.39681 -3.53912,38.3493 -33.27097,-19.39683 3.53912,-38.34928 z"
       id="rect2874"
       inkscape:connector-curvature="0" />
    <path
       inkscape:connector-curvature="0"
       style="color:#000000;fill:#dda0dd;fill-opacity:1;fill-rule:nonzero;stroke:#000000;stroke-width:3.75;stroke-linecap:round;stroke-linejoin:round;stroke-miterlimit:3.97188687;stroke-opacity:1;stroke-dasharray:none;stroke-dashoffset:0.6;marker:none;visibility:visible;display:inline;overflow:visible;enable-background:accumulate"
       d="m 442.58915,268.20246 -29.87152,4.16317 -22.02044,25.88263 70.97147,-2.75566 -19.07951,-27.29014 z"
       id="rect2845-6"
       sodipodi:nodetypes="ccccc" />
    <g
       style="font-size:36px;font-style:normal;font-variant:normal;font-weight:normal;font-stretch:normal;line-height:125%;letter-spacing:0px;word-spacing:0px;fill:#000000;fill-opacity:1;stroke:none;font-family:Gentium;-inkscape-font-specification:Gentium"
       id="text3843">
      <path
         d="m 505.22934,190.05672 5.7832,0 -1.65234,-9.5625 -4.13086,9.5625 m 11.54883,9.40429 -6.76758,0 0.0703,-0.75586 c 0.83202,-0.0586 1.42968,-0.17578 1.79297,-0.35156 0.36327,-0.1875 0.50975,-0.46875 0.43945,-0.84375 l -1.01953,-5.85351 -6.75,0 -2.51367,5.85351 c -0.16407,0.36328 -0.0762,0.62696 0.26367,0.79102 0.35156,0.15234 0.97851,0.28711 1.88086,0.40429 l -0.10547,0.75586 -6.66211,0 0.10547,-0.75586 c 0.73828,-0.14062 1.33008,-0.2871 1.77539,-0.43945 0.44531,-0.16406 0.74414,-0.41601 0.89649,-0.75586 l 8.56054,-19.65234 c 0.15234,-0.14061 0.33398,-0.28123 0.54493,-0.42188 0.21092,-0.15232 0.42772,-0.29294 0.65039,-0.42187 0.22264,-0.1406 0.43358,-0.26951 0.63281,-0.38672 0.21092,-0.12888 0.39256,-0.23435 0.54492,-0.31641 l 3.79688,21.19922 c 0.0234,0.16407 0.0644,0.31055 0.12304,0.43946 0.0703,0.11718 0.17577,0.22851 0.31641,0.33398 0.14061,0.0937 0.32811,0.17578 0.5625,0.24609 0.24608,0.0703 0.55662,0.12891 0.93164,0.17578 l -0.0703,0.75586"
         style="font-style:italic;-inkscape-font-specification:Gentium Italic"
         id="path3869"
         inkscape:connector-curvature="0" />
    </g>
    <g
       style="font-size:36px;font-style:normal;font-variant:normal;font-weight:normal;font-stretch:normal;line-height:125%;letter-spacing:0px;word-spacing:0px;fill:#000000;fill-opacity:1;stroke:none;font-family:Gentium;-inkscape-font-specification:Gentium"
       id="text3843-9">
      <path
         d="m 360.21149,384.79642 c -0.35158,2e-5 -0.68556,0.006 -1.00196,0.0176 -0.31641,2e-5 -0.61524,0.006 -0.89648,0.0176 l -1.14258,8.41993 0.5625,0 c 0.82031,10e-6 1.61132,-0.0644 2.37305,-0.19336 0.77343,-0.1289 1.45311,-0.36327 2.03906,-0.70313 0.59764,-0.33983 1.07225,-0.80858 1.42383,-1.40625 0.35155,-0.59764 0.52733,-1.36522 0.52734,-2.30273 -10e-6,-0.71483 -0.12892,-1.31834 -0.38672,-1.81055 -0.2461,-0.49217 -0.56251,-0.89061 -0.94922,-1.19531 -0.38673,-0.30467 -0.8086,-0.52147 -1.26562,-0.65039 -0.45704,-0.12889 -0.88478,-0.19334 -1.2832,-0.19336 m -0.58008,9.79101 c -0.51563,10e-6 -0.99024,0.0293 -1.42383,0.0879 -0.4336,0.0469 -0.84962,0.0996 -1.24805,0.15821 l -1.2832,9.33398 c -0.0352,0.0937 0.0293,0.20508 0.19336,0.33399 0.22265,0.10547 0.46874,0.19922 0.73828,0.28125 0.26953,0.0703 0.54492,0.1289 0.82617,0.17578 0.29296,0.0351 0.58007,0.0645 0.86133,0.0879 0.28124,0.0117 0.54491,0.0176 0.79102,0.0176 0.77342,0 1.47069,-0.15821 2.09179,-0.47461 0.6328,-0.32813 1.17187,-0.75586 1.61719,-1.28321 0.4453,-0.52734 0.791,-1.13085 1.03711,-1.81054 0.24608,-0.67969 0.36913,-1.37695 0.36914,-2.0918 -1e-5,-0.58593 -0.0879,-1.16601 -0.26367,-1.74024 -0.16408,-0.57421 -0.42775,-1.08983 -0.79102,-1.54687 -0.36329,-0.45702 -0.8379,-0.82616 -1.42382,-1.10742 -0.57423,-0.28124 -1.2715,-0.42187 -2.0918,-0.42188 m 7.3125,4.20117 c -2e-5,1.14845 -0.22267,2.19728 -0.66797,3.14649 -0.44533,0.94922 -1.04884,1.76367 -1.81055,2.44336 -0.76173,0.67969 -1.64649,1.21289 -2.65429,1.59961 -1.00783,0.375 -2.06837,0.5625 -3.18164,0.5625 -0.31642,0 -0.709,-0.0176 -1.17774,-0.0527 -0.45704,-0.0234 -0.94336,-0.0527 -1.45898,-0.0879 -0.51563,-0.0351 -1.03126,-0.082 -1.54688,-0.14062 -0.50391,-0.0469 -0.96094,-0.0879 -1.37109,-0.12305 -0.41016,-0.0352 -0.74414,-0.0703 -1.00196,-0.10547 -0.25781,-0.0234 -0.38671,-0.0352 -0.38671,-0.0352 l -1.16016,0 0.10547,-0.75586 c 0.73828,-0.16406 1.33008,-0.33985 1.77539,-0.52735 0.44531,-0.19921 0.67968,-0.38085 0.70312,-0.54492 l 2.61914,-19.14258 c -0.52734,0.0703 -1.00781,0.14651 -1.4414,0.22852 -0.4336,0.0821 -0.86133,0.16994 -1.2832,0.26367 l 0,-1.08984 c 0.53906,-0.15233 1.08984,-0.29295 1.65234,-0.42188 0.56249,-0.1406 1.15429,-0.25779 1.77539,-0.35156 0.62109,-0.10545 1.2832,-0.18748 1.98633,-0.24609 0.70311,-0.0586 1.45897,-0.0879 2.26758,-0.0879 0.9492,3e-5 1.79881,0.0996 2.54882,0.29883 0.76171,0.19924 1.40624,0.49221 1.9336,0.87891 0.53905,0.37502 0.9492,0.83791 1.23047,1.38867 0.29295,0.53908 0.43943,1.14846 0.43945,1.82813 -2e-5,0.60939 -0.0996,1.20118 -0.29883,1.77539 -0.18751,0.57423 -0.45704,1.10743 -0.80859,1.59961 -0.33986,0.48048 -0.75002,0.91407 -1.23047,1.30078 -0.46876,0.37501 -0.98439,0.67384 -1.54688,0.89648 0.59765,0.14064 1.13671,0.37501 1.61719,0.70313 0.49217,0.32813 0.91405,0.73243 1.26563,1.21289 0.35154,0.46876 0.62107,1.00782 0.80859,1.61718 0.1992,0.60939 0.29881,1.26564 0.29883,1.96875"
         style="font-style:italic;-inkscape-font-specification:Gentium Italic"
         id="path3872"
         inkscape:connector-curvature="0" />
    </g>
  </g>
</svg>
